<svg xmlns="http://www.w3.org/2000/svg" width="192" height="192" viewBox="0 0 192 192">
  <rect width="100%" height="100%" rx="24" fill="#fff7f0"/>
  <g transform="translate(24,24) scale(0.75)">
    <rect x="0" y="0" width="128" height="128" rx="18" fill="#ffefdf"/>
    <g transform="translate(12,12)">
      <path d="M12 12 C20 8, 44 8, 60 20 C76 32, 92 28, 104 24 C116 20, 120 14, 120 8" stroke="#6a3b12" stroke-width="6" fill="none" stroke-linecap="round" />
      <rect x="8" y="36" width="104" height="12" rx="6" fill="#6a3b12"/>
      <rect x="8" y="56" width="104" height="6" rx="3" fill="#d99a5a"/>
      <circle cx="24" cy="92" r="6" fill="#6a3b12" />
      <circle cx="40" cy="92" r="6" fill="#6a3b12" />
      <circle cx="56" cy="92" r="6" fill="#6a3b12" />
      <circle cx="72" cy="92" r="6" fill="#6a3b12" />
      <circle cx="88" cy="92" r="6" fill="#6a3b12" />
    </g>
  </g>
</svg>
